<svg xmlns="http://www.w3.org/2000/svg" xmlns:xlink="http://www.w3.org/1999/xlink" width="500" zoomAndPan="magnify" viewBox="0 0 375 374.999991" height="500" preserveAspectRatio="xMidYMid meet" version="1.0"><defs><g/><clipPath id="88aa303bb1"><path d="M 12.3125 12.3125 L 362.6875 12.3125 L 362.6875 362.6875 L 12.3125 362.6875 Z M 12.3125 12.3125 " clip-rule="nonzero"/></clipPath><clipPath id="2f24d9c807"><path d="M 362.6875 187.503906 C 362.6875 284.253906 284.253906 362.6875 187.5 362.6875 C 90.746094 362.6875 12.3125 284.253906 12.3125 187.503906 C 12.3125 90.746094 90.746094 12.3125 187.5 12.3125 C 284.253906 12.3125 362.6875 90.746094 362.6875 187.503906 Z M 362.6875 187.503906 " clip-rule="nonzero"/></clipPath><clipPath id="9db29ee142"><path d="M 56.195312 93.546875 L 341.855469 93.546875 L 341.855469 281.347656 L 56.195312 281.347656 Z M 56.195312 93.546875 " clip-rule="nonzero"/></clipPath></defs><g clip-path="url(#88aa303bb1)"><g clip-path="url(#2f24d9c807)"><path fill="none" d="M 12.3125 12.3125 L 362.6875 12.3125 L 362.6875 362.6875 L 12.3125 362.6875 Z M 12.3125 12.3125 " fill-opacity="1" fill-rule="nonzero"/></g></g><g clip-path="url(#9db29ee142)"><path fill="#000000" d="M 104.519531 110.769531 C 103.789062 111.136719 103.054688 111.503906 102.449219 111.847656 C 102.125 112.03125 101.828125 112.210938 101.605469 112.394531 C 101.269531 112.667969 101.082031 112.96875 101.121094 113.3125 C 101.164062 113.667969 101.4375 113.953125 101.949219 114.125 L 101.953125 114.125 C 102.277344 114.238281 102.734375 114.320312 103.328125 114.363281 C 103.921875 114.40625 104.667969 114.410156 105.410156 114.375 C 106.117188 114.34375 106.816406 114.273438 107.371094 114.175781 C 107.996094 114.0625 108.453125 113.898438 108.742188 113.679688 C 109.179688 113.351562 109.304688 112.941406 109.109375 112.4375 C 108.976562 112.09375 108.65625 111.714844 108.183594 111.34375 C 107.761719 111.011719 107.207031 110.664062 106.546875 110.328125 C 105.84375 109.972656 105.015625 109.632812 104.230469 109.398438 C 103.527344 109.195312 102.847656 109.070312 102.292969 109.097656 C 101.59375 109.128906 101.089844 109.378906 100.707031 109.859375 C 100.367188 110.289062 100.148438 110.890625 99.984375 111.691406 C 99.722656 112.953125 99.589844 114.730469 99.476562 116.265625 L 99.390625 117.371094 C 99.25 119.121094 99.15625 120.304688 100.09375 120.5625 C 100.785156 120.753906 101.839844 120.105469 103.445312 119.117188 C 103.632812 119.003906 103.816406 118.890625 104.214844 118.648438 L 104.894531 118.238281 C 106.742188 117.121094 108.96875 115.777344 110.210938 114.480469 C 110.980469 113.671875 111.382812 112.871094 111.359375 112.035156 C 111.332031 111.199219 110.886719 110.378906 109.953125 109.542969 C 109.226562 108.890625 108.195312 108.214844 107.164062 107.542969 C 106.328125 107 105.496094 106.457031 104.863281 105.949219 C 105.414062 105.332031 105.679688 104.707031 105.746094 104.175781 C 105.78125 103.894531 105.761719 103.632812 105.695312 103.402344 C 105.625 103.148438 105.5 102.929688 105.335938 102.761719 L 105.332031 102.761719 C 105.136719 102.566406 104.894531 102.445312 104.621094 102.410156 C 104.242188 102.363281 103.8125 102.496094 103.457031 102.761719 C 103.257812 102.910156 103.078125 103.101562 102.9375 103.320312 C 102.796875 103.550781 102.699219 103.8125 102.660156 104.101562 C 102.597656 104.59375 102.722656 105.15625 103.152344 105.730469 C 103.203125 105.800781 103.257812 105.867188 103.316406 105.933594 C 102.976562 106.199219 102.585938 106.476562 102.179688 106.761719 C 100.730469 107.789062 99.066406 108.964844 98.285156 110.660156 C 97.65625 112.035156 97.65625 113.648438 97.652344 115.410156 C 97.652344 116.832031 97.652344 118.359375 97.300781 119.882812 C 96.945312 121.453125 96.210938 123.050781 95.34375 124.421875 C 94.394531 125.921875 93.292969 127.136719 92.359375 127.734375 C 91.871094 128.042969 91.445312 128.171875 91.121094 128.15625 C 90.953125 128.148438 90.820312 128.101562 90.726562 128.023438 C 90.632812 127.945312 90.570312 127.835938 90.539062 127.695312 C 90.480469 127.433594 90.523438 127.089844 90.703125 126.6875 C 91.054688 125.882812 91.90625 124.875 92.808594 123.808594 C 93.8125 122.625 94.871094 121.371094 95.472656 120.132812 C 96.054688 118.933594 96.195312 117.777344 96.003906 116.742188 C 95.789062 115.589844 95.167969 114.601562 94.289062 113.875 C 93.75 113.433594 93.136719 113.101562 92.488281 112.753906 C 91.285156 112.105469 89.953125 111.390625 88.992188 109.773438 C 88.191406 108.425781 87.617188 106.453125 87.582031 104.484375 C 87.550781 102.855469 87.890625 101.242188 88.777344 100.011719 C 89.65625 98.796875 91.089844 97.929688 92.652344 97.378906 C 94.59375 96.695312 96.714844 96.496094 98.234375 96.710938 C 99.78125 96.929688 100.707031 97.597656 101.324219 98.042969 C 101.984375 98.515625 102.40625 98.820312 102.972656 98.4375 L 102.976562 98.4375 C 103.3125 98.210938 103.53125 97.75 103.800781 97.183594 C 104.214844 96.300781 104.785156 95.101562 105.867188 94.742188 C 106.730469 94.457031 107.992188 94.636719 109.324219 95.003906 C 110.714844 95.386719 112.179688 95.980469 113.382812 96.484375 L 114.003906 96.742188 C 115.519531 97.382812 116.601562 97.839844 117.464844 97.910156 C 117.914062 98.660156 118.589844 99.535156 119.34375 100.507812 C 120.503906 102.007812 121.859375 103.757812 122.785156 105.589844 C 123.621094 107.246094 124.117188 108.984375 124.253906 110.847656 C 124.386719 112.71875 124.152344 114.710938 123.527344 116.859375 C 122.839844 119.214844 121.6875 121.753906 120.179688 123.726562 C 118.957031 125.328125 117.511719 126.546875 115.910156 126.960938 C 113.828125 127.496094 111.359375 126.691406 109.066406 125.941406 C 107.375 125.386719 105.773438 124.859375 104.378906 124.882812 C 102.449219 124.917969 101.101562 125.960938 99.664062 127.078125 C 98.59375 127.902344 97.472656 128.773438 96.058594 129.210938 C 94.472656 129.703125 92.464844 129.6875 90.4375 129.273438 C 88.351562 128.847656 86.25 127.996094 84.558594 126.828125 C 83.011719 125.765625 81.800781 124.4375 80.878906 122.988281 C 79.808594 121.3125 79.125 119.472656 78.753906 117.707031 C 78.402344 116.050781 78.324219 114.464844 78.515625 113.078125 C 78.695312 111.757812 79.125 110.625 79.792969 109.808594 C 80.382812 109.089844 81.1875 108.585938 82.027344 108.058594 C 83.226562 107.308594 84.488281 106.519531 85.457031 105.019531 C 85.945312 104.261719 86.347656 103.335938 86.703125 102.355469 C 86.570312 103.054688 86.515625 103.777344 86.53125 104.503906 C 86.570312 106.65625 87.203125 108.824219 88.085938 110.3125 C 89.199219 112.179688 90.664062 112.96875 91.988281 113.679688 C 92.589844 114.003906 93.15625 114.308594 93.617188 114.6875 C 94.3125 115.261719 94.800781 116.039062 94.96875 116.933594 C 95.121094 117.757812 95.003906 118.695312 94.527344 119.679688 C 93.984375 120.792969 92.964844 121.996094 92.003906 123.132812 C 91.050781 124.257812 90.148438 125.324219 89.738281 126.269531 C 89.464844 126.890625 89.402344 127.460938 89.507812 127.925781 C 89.59375 128.300781 89.78125 128.609375 90.054688 128.835938 C 90.324219 129.054688 90.667969 129.1875 91.0625 129.207031 C 91.597656 129.234375 92.234375 129.058594 92.921875 128.621094 C 93.984375 127.945312 95.203125 126.609375 96.230469 124.984375 C 97.15625 123.523438 97.941406 121.8125 98.328125 120.121094 C 98.699219 118.488281 98.703125 116.898438 98.703125 115.414062 C 98.703125 113.769531 98.707031 112.269531 99.242188 111.101562 C 99.902344 109.664062 101.441406 108.578125 102.785156 107.628906 C 103.253906 107.296875 103.699219 106.984375 104.085938 106.671875 C 104.789062 107.253906 105.6875 107.839844 106.589844 108.425781 C 107.582031 109.074219 108.574219 109.71875 109.25 110.328125 C 109.953125 110.960938 110.292969 111.53125 110.308594 112.066406 C 110.324219 112.601562 110.019531 113.15625 109.449219 113.757812 C 108.308594 114.953125 106.144531 116.257812 104.347656 117.339844 L 103.667969 117.753906 L 102.890625 118.226562 C 101.523438 119.070312 100.625 119.625 100.371094 119.554688 C 100.277344 119.527344 100.34375 118.691406 100.441406 117.453125 C 100.472656 117.085938 100.5 116.714844 100.527344 116.347656 C 100.640625 114.832031 100.773438 113.082031 101.015625 111.902344 C 101.144531 111.265625 101.304688 110.804688 101.53125 110.515625 C 101.714844 110.285156 101.972656 110.164062 102.339844 110.148438 C 102.769531 110.128906 103.332031 110.234375 103.929688 110.410156 C 104.65625 110.625 105.421875 110.941406 106.074219 111.269531 C 106.664062 111.570312 107.160156 111.878906 107.527344 112.171875 C 107.855469 112.429688 108.0625 112.65625 108.128906 112.824219 C 108.128906 112.828125 108.125 112.835938 108.109375 112.84375 C 107.949219 112.964844 107.640625 113.0625 107.183594 113.148438 C 106.683594 113.238281 106.03125 113.300781 105.363281 113.332031 C 104.671875 113.363281 103.964844 113.359375 103.402344 113.320312 C 102.9375 113.285156 102.589844 113.226562 102.347656 113.152344 C 102.507812 113.035156 102.726562 112.902344 102.96875 112.765625 C 103.574219 112.421875 104.285156 112.066406 104.992188 111.714844 Z M 102.167969 113.1875 C 102.164062 113.15625 102.175781 113.167969 102.191406 113.1875 C 102.179688 113.207031 102.171875 113.21875 102.167969 113.191406 Z M 104.09375 105.226562 C 104.058594 105.1875 104.027344 105.148438 103.996094 105.105469 C 103.75 104.777344 103.675781 104.480469 103.707031 104.230469 C 103.722656 104.101562 103.769531 103.980469 103.832031 103.878906 C 103.902344 103.769531 103.988281 103.675781 104.082031 103.605469 C 104.226562 103.5 104.378906 103.441406 104.492188 103.457031 C 104.527344 103.460938 104.5625 103.476562 104.585938 103.503906 L 104.589844 103.503906 C 104.628906 103.542969 104.660156 103.605469 104.679688 103.679688 C 104.710938 103.78125 104.714844 103.902344 104.699219 104.046875 C 104.65625 104.382812 104.472656 104.792969 104.089844 105.226562 Z M 87.921875 99.398438 C 87.730469 99.667969 87.558594 99.949219 87.40625 100.246094 L 87.441406 100.136719 C 87.953125 98.527344 88.445312 96.996094 89.074219 96.109375 C 89.488281 95.53125 89.972656 95.230469 90.417969 95.089844 C 91.328125 95.195312 92.066406 95.242188 92.28125 95.070312 L 92.285156 95.070312 C 92.492188 94.902344 92.546875 94.695312 92.453125 94.453125 L 92.453125 94.449219 C 92.390625 94.285156 92.214844 94.128906 91.960938 94.042969 C 91.832031 94 91.65625 93.960938 91.449219 93.941406 C 91.132812 93.910156 90.726562 93.917969 90.289062 94.03125 C 90.085938 93.996094 89.867188 93.960938 89.636719 93.933594 C 89.011719 93.851562 88.363281 93.765625 87.851562 93.714844 C 86.996094 93.625 86.359375 93.601562 85.851562 93.777344 C 85.253906 93.984375 84.894531 94.40625 84.699219 95.1875 C 84.640625 95.414062 84.601562 95.6875 84.550781 95.988281 C 84.371094 97.136719 84.117188 98.765625 82.332031 99.945312 C 81.542969 100.464844 80.433594 100.925781 79.210938 101.429688 C 76.773438 102.441406 73.90625 103.628906 71.910156 105.957031 C 70.640625 107.4375 69.753906 109.351562 69.152344 111.28125 C 68.320312 113.953125 68.03125 116.667969 68.050781 118.273438 C 68.074219 120.269531 68.542969 120.699219 69.328125 121.417969 C 69.65625 121.722656 70.058594 122.089844 70.503906 122.71875 C 70.550781 122.785156 70.597656 122.855469 70.644531 122.925781 C 69.710938 122.667969 68.917969 122.5 68.25 122.414062 C 66.441406 122.167969 65.445312 122.511719 65.152344 123.148438 C 64.851562 123.800781 65.261719 124.480469 65.871094 125.496094 C 66.363281 126.316406 67.007812 127.390625 67.488281 128.800781 C 67.816406 129.761719 68.074219 130.886719 68.347656 132.085938 C 68.917969 134.597656 69.5625 137.417969 71.078125 139.859375 C 72.246094 141.742188 73.925781 143.371094 75.898438 144.527344 C 77.785156 145.628906 79.9375 146.304688 82.1875 146.351562 C 84.476562 146.402344 86.8125 145.8125 89.0625 145.242188 C 91.230469 144.695312 93.316406 144.167969 95.09375 144.292969 C 95.582031 144.328125 96.050781 144.410156 96.511719 144.535156 L 96.65625 144.902344 C 97.96875 148.277344 98.878906 152.046875 99.726562 156.242188 C 100.40625 159.589844 101.0625 163.324219 101.667969 166.792969 C 102.554688 171.84375 103.34375 176.316406 104.019531 178.503906 C 104.5625 180.25 105.15625 180.75 105.902344 180.519531 C 105.992188 180.492188 106.082031 180.453125 106.167969 180.398438 C 105.550781 181.90625 105.0625 183.433594 104.9375 184.953125 C 104.785156 186.78125 105.15625 188.535156 105.578125 190.519531 C 106.089844 192.953125 106.683594 195.734375 106.410156 199.359375 C 106.207031 202.035156 105.539062 205.191406 104.722656 208.183594 C 103.550781 212.488281 102.089844 216.4375 101.289062 218.167969 C 101.046875 218.695312 101.363281 219.105469 101.195312 219.027344 C 101.113281 218.988281 101.222656 218.476562 101.148438 217.621094 C 101.058594 216.640625 100.945312 215.378906 100.675781 214.082031 C 100.644531 213.9375 100.613281 213.796875 100.582031 213.652344 L 100.589844 213.652344 C 101.121094 213.632812 101.40625 213.382812 101.386719 212.804688 C 101.363281 212.191406 100.628906 210.800781 99.234375 209.207031 C 98.527344 207.050781 97.875 204.910156 97.949219 202.964844 C 97.992188 201.765625 98.3125 200.59375 98.636719 199.421875 C 99.257812 197.160156 99.878906 194.886719 98.757812 192.152344 C 97.972656 190.234375 96.3125 188.132812 94.199219 186.054688 C 91.773438 183.679688 88.738281 181.324219 85.726562 179.328125 C 83.429688 177.800781 81.140625 176.480469 79.171875 175.4375 C 76.316406 173.925781 74.105469 172.996094 73.492188 172.875 C 73.027344 172.78125 72.777344 172.921875 72.699219 173.308594 C 72.632812 173.640625 72.886719 173.910156 73.300781 174.34375 C 74.128906 175.21875 75.890625 177.078125 76.679688 179.9375 C 77.140625 181.605469 77.277344 183.667969 77.421875 185.808594 C 77.664062 189.363281 77.917969 193.144531 79.679688 196.058594 C 81.707031 199.402344 85.628906 201.460938 89.367188 203.421875 C 90.871094 204.210938 92.34375 204.980469 93.632812 205.808594 C 95.476562 206.992188 96.964844 208.296875 98.070312 209.488281 L 98.300781 209.734375 L 98.425781 210.121094 C 98.644531 210.785156 98.867188 211.449219 99.070312 212.109375 C 98.160156 211.753906 97.015625 211.300781 95.761719 211.03125 C 95.398438 210.953125 95.027344 210.890625 94.644531 210.839844 C 94.320312 210.46875 93.980469 210.113281 93.632812 209.773438 C 91.992188 208.183594 90.113281 207 87.949219 206.097656 C 85.804688 205.199219 83.386719 204.578125 80.648438 204.09375 C 77.761719 203.589844 74.507812 203.242188 71.386719 203.167969 C 68.621094 203.101562 65.960938 203.253906 63.753906 203.707031 C 61.777344 204.113281 60.164062 204.761719 58.941406 205.441406 C 57.136719 206.441406 56.121094 207.585938 55.980469 208.191406 C 55.828125 208.847656 56.144531 209.136719 56.84375 209.296875 C 57.105469 209.355469 57.425781 209.394531 57.816406 209.4375 C 58.726562 209.546875 60.058594 209.703125 61.652344 210.273438 C 62.8125 210.691406 64.148438 211.339844 65.5625 212.027344 C 68.207031 213.3125 71.125 214.730469 73.933594 215.140625 C 77.453125 215.660156 80.675781 214.597656 83.730469 213.589844 C 84.476562 213.34375 85.210938 213.101562 85.878906 212.902344 C 87.71875 212.355469 89.496094 211.992188 91.171875 211.847656 C 92.195312 211.757812 93.183594 211.753906 94.121094 211.84375 C 95.160156 213.085938 96.089844 214.523438 96.929688 216.121094 C 98.09375 218.339844 99.089844 220.875 99.976562 223.632812 C 100.867188 226.394531 101.644531 229.382812 102.230469 232.679688 C 102.5625 234.527344 102.828125 236.46875 103.023438 238.515625 C 101.628906 242.464844 100.519531 246.390625 99.6875 250.101562 C 98.292969 256.34375 97.6875 261.976562 97.542969 266.644531 C 97.328125 273.4375 98.09375 278.238281 98.789062 279.933594 C 99.816406 282.425781 100.660156 281.433594 101.394531 278.34375 C 101.898438 276.210938 102.375 272.765625 102.835938 268.875 C 103.292969 264.996094 103.742188 260.671875 104.042969 256.304688 C 104.347656 251.941406 104.503906 247.542969 104.382812 243.515625 C 104.332031 241.824219 104.234375 240.203125 104.09375 238.640625 C 105.808594 233.808594 107.949219 228.945312 110.523438 224.40625 C 114.382812 217.597656 119.210938 211.523438 125.007812 207.414062 C 137.40625 198.621094 154.410156 198.734375 188.816406 198.960938 L 192.496094 198.984375 C 210.992188 199.101562 234.289062 199.167969 259.984375 199.207031 C 285.675781 199.246094 313.765625 199.257812 341.851562 199.273438 L 341.851562 198.222656 C 313.765625 198.210938 285.675781 198.195312 259.984375 198.15625 C 234.292969 198.117188 211 198.054688 192.5 197.9375 L 188.824219 197.914062 C 154.191406 197.683594 137.074219 197.570312 124.398438 206.554688 C 118.464844 210.761719 113.539062 216.953125 109.609375 223.890625 C 107.363281 227.851562 105.441406 232.0625 103.839844 236.28125 C 103.679688 234.976562 103.488281 233.71875 103.273438 232.5 C 102.679688 229.160156 101.886719 226.125 100.980469 223.3125 C 100.074219 220.503906 99.058594 217.914062 97.863281 215.636719 C 97.183594 214.347656 96.453125 213.160156 95.648438 212.085938 C 96.785156 212.34375 97.84375 212.757812 98.6875 213.089844 C 98.953125 213.195312 99.203125 213.292969 99.429688 213.378906 C 99.507812 213.6875 99.582031 213.992188 99.644531 214.296875 C 99.90625 215.546875 100.015625 216.765625 100.097656 217.714844 C 100.207031 218.929688 100.28125 219.765625 100.753906 219.984375 C 101.230469 220.207031 101.6875 219.816406 102.242188 218.609375 C 103.0625 216.835938 104.554688 212.816406 105.738281 208.460938 C 106.566406 205.414062 107.25 202.195312 107.457031 199.4375 C 107.742188 195.667969 107.132812 192.808594 106.605469 190.304688 C 106.203125 188.402344 105.84375 186.71875 105.984375 185.039062 C 106.171875 182.796875 107.253906 180.453125 108.304688 178.171875 C 108.445312 177.871094 108.582031 177.570312 108.71875 177.273438 L 108.871094 177.097656 C 109.867188 176.003906 111.175781 175.070312 112.699219 174.375 C 114.1875 173.699219 115.875 173.253906 117.667969 173.109375 C 118.535156 173.039062 119.398438 173.035156 120.277344 173.035156 C 123.390625 173.023438 126.65625 173.015625 129.753906 170.320312 C 132.089844 168.289062 134.253906 164.757812 136.257812 161.492188 C 137.609375 159.292969 138.882812 157.210938 140.054688 155.847656 C 141.195312 154.519531 142.238281 153.863281 142.894531 153.570312 C 143.234375 153.515625 143.460938 153.457031 143.585938 153.40625 L 143.710938 153.359375 C 143.945312 153.320312 144.117188 153.230469 144.226562 153.121094 C 144.921875 152.746094 144.820312 152.472656 144.109375 152.371094 C 143.96875 152.308594 143.78125 152.289062 143.542969 152.332031 L 143.445312 152.328125 C 143.335938 152.328125 143.132812 152.359375 142.878906 152.445312 C 142.796875 152.476562 142.699219 152.511719 142.59375 152.554688 C 142.488281 152.570312 142.363281 152.582031 142.226562 152.597656 C 141.507812 152.664062 140.410156 152.695312 139.074219 152.738281 C 135.355469 152.847656 129.804688 153.007812 125.003906 154.15625 C 121.8125 154.917969 118.964844 156.113281 116.648438 157.523438 C 114.144531 159.046875 112.246094 160.832031 111.175781 162.617188 C 109.902344 164.730469 109.804688 166.78125 109.703125 168.925781 C 109.640625 170.257812 109.578125 171.632812 109.210938 173.042969 C 108.90625 174.210938 108.386719 175.445312 107.816406 176.710938 C 107.375 177.234375 107.003906 177.761719 106.671875 178.230469 C 106.191406 178.910156 105.808594 179.453125 105.589844 179.519531 C 105.496094 179.546875 105.335938 179.203125 105.023438 178.195312 C 104.367188 176.089844 103.585938 171.640625 102.707031 166.613281 C 102.109375 163.207031 101.464844 159.535156 100.757812 156.035156 C 99.933594 151.972656 99.054688 148.300781 97.808594 144.980469 C 98.703125 145.351562 99.59375 145.832031 100.527344 146.339844 C 102.164062 147.226562 103.941406 148.191406 106.183594 148.820312 C 108.765625 149.542969 111.941406 149.8125 115.160156 149.46875 C 118.042969 149.164062 120.964844 148.371094 123.535156 146.976562 C 126.039062 145.617188 128.199219 143.695312 129.976562 141.550781 C 132.050781 139.046875 133.605469 136.226562 134.582031 133.65625 C 135.488281 131.253906 135.890625 129.058594 135.875 126.960938 C 135.855469 124.863281 135.417969 122.875 134.644531 120.886719 C 133.808594 118.75 132.597656 116.644531 131.503906 114.734375 C 130.589844 113.148438 129.757812 111.699219 129.308594 110.527344 C 128.628906 108.75 128.816406 107.5625 128.90625 106.992188 C 128.976562 106.542969 129.019531 106.277344 128.683594 106.054688 C 128.617188 106.011719 128.539062 105.980469 128.453125 105.96875 C 128.261719 105.9375 128.03125 106.007812 127.8125 106.203125 C 127.6875 106.308594 127.542969 106.472656 127.390625 106.699219 L 127.390625 106.703125 C 126.910156 107.421875 126.261719 108.914062 125.832031 111.558594 C 125.625 112.816406 125.472656 114.328125 125.304688 115.972656 C 124.917969 119.726562 124.460938 124.1875 123.203125 127.710938 C 122.3125 130.203125 121.019531 132.230469 119.316406 133.886719 C 117.605469 135.550781 115.476562 136.847656 112.929688 137.863281 C 110.289062 138.914062 107.199219 139.664062 103.957031 140.011719 C 101.167969 140.308594 98.273438 140.304688 95.453125 139.941406 C 94.488281 138.28125 93.359375 136.726562 92.007812 135.273438 C 89.824219 132.917969 87.082031 130.839844 84.25 129.085938 C 80.570312 126.804688 76.722656 125.054688 73.769531 123.953125 C 73.203125 123.742188 72.667969 123.554688 72.164062 123.390625 C 71.878906 122.90625 71.617188 122.476562 71.363281 122.117188 C 70.851562 121.390625 70.40625 120.984375 70.039062 120.648438 C 69.460938 120.117188 69.121094 119.800781 69.101562 118.261719 C 69.082031 116.742188 69.355469 114.152344 70.15625 111.597656 C 70.71875 109.785156 71.542969 108 72.707031 106.640625 C 74.539062 104.503906 77.28125 103.367188 79.613281 102.402344 C 80.882812 101.878906 82.039062 101.398438 82.914062 100.820312 C 85.082031 99.386719 85.378906 97.484375 85.589844 96.144531 C 85.628906 95.886719 85.667969 95.648438 85.71875 95.441406 C 85.816406 95.046875 85.964844 94.847656 86.191406 94.769531 C 86.511719 94.65625 87.023438 94.683594 87.738281 94.757812 C 88.0625 94.792969 88.40625 94.832031 88.757812 94.875 C 88.570312 95.054688 88.386719 95.257812 88.214844 95.5 C 87.492188 96.511719 86.976562 98.125 86.4375 99.816406 C 85.90625 101.488281 85.347656 103.238281 84.566406 104.445312 C 83.722656 105.753906 82.566406 106.476562 81.46875 107.164062 C 80.546875 107.742188 79.660156 108.292969 78.96875 109.136719 C 78.175781 110.105469 77.675781 111.417969 77.464844 112.933594 C 77.257812 114.4375 77.339844 116.144531 77.71875 117.914062 C 78.113281 119.796875 78.84375 121.753906 79.988281 123.550781 C 80.984375 125.109375 82.289062 126.542969 83.957031 127.691406 C 85.769531 128.933594 88.003906 129.84375 90.222656 130.296875 C 92.417969 130.75 94.605469 130.757812 96.363281 130.210938 C 97.960938 129.714844 99.160156 128.789062 100.300781 127.902344 C 101.597656 126.898438 102.816406 125.957031 104.390625 125.929688 C 105.605469 125.910156 107.125 126.410156 108.738281 126.9375 C 111.167969 127.730469 113.785156 128.589844 116.171875 127.972656 C 118.023438 127.496094 119.660156 126.136719 121.015625 124.363281 C 122.601562 122.285156 123.8125 119.617188 124.53125 117.148438 C 125.195312 114.875 125.441406 112.757812 125.300781 110.769531 C 125.15625 108.765625 124.621094 106.894531 123.722656 105.117188 C 122.75 103.195312 121.363281 101.398438 120.171875 99.863281 C 119.554688 99.0625 118.988281 98.335938 118.582031 97.710938 C 118.871094 97.5625 119.113281 97.339844 119.300781 97.078125 C 119.515625 96.78125 119.664062 96.433594 119.730469 96.097656 C 119.804688 95.730469 119.78125 95.363281 119.644531 95.0625 C 119.5625 94.875 119.4375 94.714844 119.273438 94.59375 C 119 94.398438 118.628906 94.324219 118.257812 94.382812 C 117.980469 94.425781 117.703125 94.542969 117.464844 94.734375 C 117.226562 94.925781 117.027344 95.195312 116.925781 95.542969 C 116.824219 95.875 116.8125 96.277344 116.941406 96.75 C 116.3125 96.574219 115.484375 96.226562 114.410156 95.773438 C 114.011719 95.605469 114.039062 95.613281 113.785156 95.507812 C 112.558594 94.992188 111.058594 94.386719 109.605469 93.984375 C 108.097656 93.566406 106.632812 93.378906 105.535156 93.742188 C 104.027344 94.242188 103.347656 95.675781 102.847656 96.730469 C 102.648438 97.152344 102.484375 97.496094 102.386719 97.558594 C 102.347656 97.578125 102.230469 97.394531 101.9375 97.1875 C 101.238281 96.679688 100.183594 95.921875 98.375 95.667969 C 96.710938 95.429688 94.402344 95.640625 92.304688 96.382812 C 90.558594 97 88.941406 97.988281 87.925781 99.394531 Z M 118.449219 96.46875 C 118.34375 96.613281 118.214844 96.734375 118.066406 96.796875 C 117.890625 96.378906 117.867188 96.066406 117.933594 95.84375 C 117.972656 95.71875 118.042969 95.621094 118.125 95.554688 C 118.214844 95.484375 118.320312 95.4375 118.421875 95.421875 C 118.523438 95.40625 118.613281 95.417969 118.65625 95.449219 C 118.667969 95.457031 118.675781 95.472656 118.6875 95.488281 C 118.726562 95.585938 118.730469 95.730469 118.695312 95.898438 C 118.65625 96.09375 118.570312 96.296875 118.449219 96.464844 Z M 71.457031 124.265625 L 71.796875 124.855469 C 73.109375 127.148438 74.910156 130.289062 77.808594 133.035156 C 79.847656 134.972656 82.421875 136.699219 85.320312 138.0625 C 88.109375 139.375 91.207031 140.351562 94.429688 140.859375 L 94.800781 140.914062 C 95.238281 141.699219 95.640625 142.511719 96.011719 143.351562 C 95.734375 143.300781 95.453125 143.265625 95.164062 143.246094 C 93.21875 143.109375 91.058594 143.65625 88.808594 144.226562 C 86.621094 144.78125 84.347656 145.355469 82.207031 145.308594 C 80.148438 145.261719 78.164062 144.640625 76.429688 143.628906 C 74.601562 142.558594 73.050781 141.050781 71.96875 139.3125 C 70.546875 137.023438 69.925781 134.289062 69.371094 131.863281 C 69.089844 130.628906 68.828125 129.46875 68.484375 128.464844 C 67.96875 126.957031 67.289062 125.824219 66.773438 124.960938 C 66.332031 124.230469 66.039062 123.738281 66.109375 123.589844 C 66.210938 123.371094 66.839844 123.285156 68.109375 123.457031 C 68.976562 123.574219 70.085938 123.832031 71.457031 124.269531 Z M 78.53125 132.273438 C 75.933594 129.808594 74.226562 126.96875 72.96875 124.78125 L 73.402344 124.941406 C 76.300781 126.023438 80.074219 127.738281 83.699219 129.980469 C 86.464844 131.695312 89.132812 133.714844 91.242188 135.988281 C 92.335938 137.164062 93.28125 138.414062 94.109375 139.742188 C 91.167969 139.230469 88.335938 138.316406 85.769531 137.109375 C 82.96875 135.792969 80.492188 134.132812 78.535156 132.273438 Z M 96.082031 141.074219 C 98.746094 141.359375 101.457031 141.335938 104.070312 141.058594 C 107.40625 140.703125 110.589844 139.929688 113.320312 138.84375 C 116 137.777344 118.242188 136.410156 120.054688 134.644531 C 121.875 132.875 123.253906 130.714844 124.199219 128.070312 L 124.199219 128.066406 C 125.5 124.429688 125.964844 119.898438 126.355469 116.082031 C 126.519531 114.449219 126.675781 112.945312 126.875 111.726562 C 127.128906 110.164062 127.453125 109.050781 127.765625 108.28125 C 127.789062 108.976562 127.925781 109.851562 128.328125 110.90625 C 128.808594 112.15625 129.660156 113.640625 130.59375 115.261719 C 131.675781 117.148438 132.871094 119.226562 133.667969 121.269531 C 134.398438 123.144531 134.8125 125.011719 134.828125 126.976562 C 134.84375 128.941406 134.460938 131.011719 133.601562 133.289062 C 132.667969 135.761719 131.167969 138.46875 129.167969 140.882812 C 127.46875 142.9375 125.414062 144.769531 123.039062 146.058594 C 120.597656 147.378906 117.8125 148.136719 115.054688 148.429688 C 111.96875 148.757812 108.933594 148.5 106.472656 147.8125 C 104.339844 147.210938 102.617188 146.28125 101.035156 145.421875 C 99.757812 144.726562 98.5625 144.078125 97.292969 143.671875 C 96.921875 142.78125 96.519531 141.914062 96.082031 141.078125 Z M 112.265625 173.425781 C 111.335938 173.847656 110.476562 174.355469 109.710938 174.933594 C 109.914062 174.386719 110.09375 173.84375 110.230469 173.308594 C 110.625 171.789062 110.691406 170.363281 110.757812 168.980469 C 110.851562 166.96875 110.941406 165.046875 112.078125 163.15625 C 113.0625 161.519531 114.839844 159.859375 117.199219 158.425781 C 119.429688 157.066406 122.175781 155.917969 125.25 155.179688 C 129.941406 154.058594 135.429688 153.898438 139.105469 153.789062 C 139.6875 153.773438 140.226562 153.757812 140.707031 153.738281 C 140.25 154.113281 139.761719 154.585938 139.257812 155.167969 C 138.03125 156.597656 136.734375 158.710938 135.363281 160.945312 C 133.398438 164.148438 131.273438 167.609375 129.0625 169.53125 C 126.261719 171.972656 123.199219 171.980469 120.277344 171.988281 C 119.359375 171.988281 118.449219 171.992188 117.589844 172.0625 C 115.675781 172.214844 113.867188 172.695312 112.265625 173.425781 Z M 96.894531 202.929688 C 96.839844 204.429688 97.160156 205.980469 97.613281 207.550781 C 96.65625 206.667969 95.515625 205.765625 94.203125 204.925781 C 92.878906 204.078125 91.386719 203.292969 89.863281 202.496094 C 86.25 200.601562 82.460938 198.613281 80.585938 195.519531 C 78.957031 192.820312 78.710938 189.171875 78.476562 185.742188 C 78.332031 183.550781 78.1875 181.445312 77.695312 179.664062 C 77.050781 177.316406 75.816406 175.605469 74.867188 174.507812 C 75.835938 174.929688 77.15625 175.5625 78.683594 176.371094 C 80.625 177.398438 82.882812 178.699219 85.148438 180.207031 C 88.113281 182.171875 91.089844 184.484375 93.460938 186.808594 C 95.484375 188.792969 97.058594 190.777344 97.789062 192.554688 C 98.773438 194.957031 98.199219 197.058594 97.625 199.148438 C 97.285156 200.382812 96.949219 201.613281 96.898438 202.929688 Z M 93.105469 210.730469 C 92.449219 210.714844 91.773438 210.738281 91.085938 210.796875 C 89.339844 210.949219 87.492188 211.328125 85.585938 211.894531 C 84.832031 212.117188 84.121094 212.351562 83.402344 212.589844 C 80.464844 213.558594 77.359375 214.582031 74.089844 214.101562 C 71.4375 213.710938 68.59375 212.332031 66.023438 211.082031 C 64.589844 210.386719 63.234375 209.730469 62.007812 209.289062 C 60.292969 208.671875 58.894531 208.507812 57.9375 208.394531 C 57.574219 208.351562 57.28125 208.320312 57.082031 208.273438 C 57.058594 208.269531 56.980469 208.554688 57.007812 208.429688 C 57.097656 208.039062 57.925781 207.207031 59.453125 206.359375 C 60.597656 205.726562 62.109375 205.121094 63.96875 204.738281 C 66.09375 204.300781 68.671875 204.15625 71.363281 204.21875 C 74.417969 204.289062 77.621094 204.632812 80.472656 205.132812 C 83.136719 205.601562 85.484375 206.207031 87.546875 207.066406 C 89.589844 207.921875 91.363281 209.035156 92.90625 210.527344 L 93.109375 210.730469 Z M 103.230469 241.183594 C 103.277344 241.957031 103.3125 242.746094 103.335938 243.546875 C 103.453125 247.523438 103.296875 251.890625 102.996094 256.234375 C 102.695312 260.566406 102.246094 264.878906 101.789062 268.75 C 101.332031 272.605469 100.863281 276.015625 100.367188 278.105469 C 100.097656 279.234375 99.886719 279.828125 99.765625 279.535156 C 99.105469 277.933594 98.386719 273.3125 98.59375 266.675781 C 98.738281 262.066406 99.335938 256.5 100.714844 250.328125 C 101.375 247.386719 102.210938 244.304688 103.226562 241.183594 Z M 103.230469 241.183594 " fill-opacity="1" fill-rule="nonzero"/></g><g fill="#000000" fill-opacity="1"><g transform="translate(155.237207, 189.252243)"><g><path d="M -2.03125 26.851562 C -6.222656 26.851562 -4.324219 20.304688 -3.273438 18.011719 C -1.964844 15.128906 -0.328125 12.246094 1.570312 9.890625 L 6.023438 4.847656 C 6.613281 4.191406 7.140625 3.929688 7.726562 3.339844 C 8.316406 2.621094 8.839844 2.292969 9.496094 1.769531 L 13.230469 -1.046875 C 13.949219 -1.441406 14.539062 -1.832031 15.195312 -2.226562 C 15.195312 1.113281 10.152344 15.195312 7.402344 18.796875 C 5.960938 21.679688 1.046875 26.851562 -2.03125 26.851562 Z M 0.980469 -26.261719 C 0.980469 -23.90625 1.179688 -21.742188 2.160156 -20.171875 C 3.796875 -17.683594 5.4375 -17.488281 7.925781 -17.488281 C 8.777344 -17.488281 8.972656 -18.863281 7.726562 -19.125 C 6.351562 -19.386719 5.960938 -19.125 5.042969 -19.976562 C 3.273438 -21.152344 2.945312 -23.511719 2.945312 -25.871094 C 2.945312 -32.089844 7.140625 -39.6875 10.675781 -44.207031 C 12.507812 -46.632812 14.082031 -48.203125 15.390625 -48.203125 C 16.4375 -48.203125 17.355469 -47.089844 18.011719 -44.339844 C 19.125 -40.082031 18.664062 -37.789062 18.863281 -35.890625 C 18.992188 -34.972656 19.058594 -34.121094 19.058594 -33.007812 L 18.273438 -21.285156 C 18.011719 -19.320312 17.878906 -17.421875 17.683594 -15.652344 C 17.488281 -14.082031 16.375 -5.632812 15.785156 -4.910156 L 11.984375 -2.683594 C 7.792969 0.261719 4.585938 3.078125 1.308594 7.007812 C -1.769531 10.675781 -6.550781 17.878906 -6.550781 22.726562 L -6.550781 24.558594 C -6.550781 27.179688 -4.519531 28.816406 -1.703125 28.816406 C 1.898438 28.816406 6.222656 24.757812 8.316406 22.136719 C 13.882812 14.734375 16.765625 5.894531 18.863281 -3.011719 C 19.453125 -5.175781 19.582031 -4.648438 21.351562 -5.4375 C 23.382812 -6.484375 26.132812 -7.402344 28.359375 -8.054688 C 29.144531 -8.253906 35.367188 -10.085938 35.367188 -10.609375 C 35.367188 -11.066406 35.234375 -11.132812 35.105469 -11.59375 C 32.15625 -11.59375 29.863281 -10.609375 27.113281 -9.691406 C 25.804688 -9.167969 24.625 -8.777344 23.511719 -8.382812 C 22.398438 -7.988281 20.828125 -7.464844 19.84375 -6.941406 L 20.828125 -13.097656 C 21.742188 -19.058594 25.347656 -50.824219 16.046875 -50.824219 C 11.65625 -50.824219 7.726562 -44.402344 5.761719 -40.933594 C 3.796875 -37.394531 0.980469 -31.566406 0.980469 -26.261719 Z M 0.980469 -26.261719 "/></g></g></g><g fill="#000000" fill-opacity="1"><g transform="translate(187.4573, 189.252243)"><g><path d="M 0 -6.613281 C 0 -4.257812 0.195312 -3.144531 2.621094 -3.144531 C 4.519531 -3.144531 6.550781 -9.300781 7.792969 -10.152344 C 7.792969 -7.335938 9.890625 -3.929688 13.164062 -3.929688 C 14.277344 -3.929688 15.523438 -4.324219 16.832031 -5.238281 L 18.796875 -6.8125 C 22.136719 -10.019531 21.742188 -11.65625 20.761719 -11.65625 C 20.367188 -11.65625 19.910156 -11.460938 19.582031 -11.003906 C 18.664062 -10.019531 18.46875 -9.429688 17.222656 -8.316406 C 15.785156 -6.875 14.410156 -6.089844 13.164062 -6.089844 C 11.789062 -6.089844 10.609375 -7.140625 10.085938 -9.496094 C 9.496094 -11.984375 10.609375 -14.933594 8.316406 -14.933594 C 7.464844 -14.933594 4.78125 -9.367188 3.472656 -7.335938 L 2.945312 -6.550781 C 2.621094 -6.15625 2.816406 -6.417969 2.621094 -6.222656 C 2.621094 -8.382812 3.535156 -10.871094 4.386719 -12.246094 C 6.289062 -15.523438 7.597656 -16.4375 8.578125 -16.4375 C 9.824219 -16.4375 10.609375 -14.933594 11.527344 -14.933594 C 13.230469 -14.933594 11.527344 -18.664062 8.449219 -18.664062 C 3.863281 -18.664062 0 -10.347656 0 -6.613281 Z M 0 -6.613281 "/></g></g></g><g fill="#000000" fill-opacity="1"><g transform="translate(206.448823, 189.252243)"><g><path d="M 0.785156 10.804688 C 0.785156 8.1875 2.683594 5.238281 4.257812 3.339844 C 5.042969 2.421875 6.613281 0.457031 7.664062 -0.132812 C 7.664062 1.703125 7.726562 3.144531 7.269531 4.648438 C 6.679688 6.8125 5.238281 9.953125 3.472656 11.265625 C 3.011719 11.65625 2.226562 12.183594 1.636719 12.183594 C 1.179688 12.183594 0.785156 11.789062 0.785156 10.804688 Z M 0.195312 -10.609375 C 0.195312 -7.140625 4.78125 -6.023438 6.8125 -2.292969 C 5.828125 -0.71875 -1.308594 4.910156 -1.308594 10.804688 C -1.308594 13.164062 0 14.410156 1.832031 14.410156 C 3.796875 14.410156 6.289062 12.902344 8.1875 9.691406 C 12.574219 2.226562 9.890625 -1.570312 10.152344 -2.488281 C 10.28125 -3.011719 14.933594 -6.484375 15.652344 -6.875 L 20.105469 -9.953125 C 21.613281 -10.804688 21.742188 -11.917969 20.695312 -11.917969 C 20.105469 -11.917969 19.253906 -11.65625 18.140625 -10.871094 L 12.050781 -6.613281 C 11.066406 -5.761719 10.152344 -5.042969 9.101562 -4.324219 C 5.699219 -9.429688 0.785156 -9.234375 4.257812 -13.164062 C 5.238281 -14.277344 5.042969 -13.949219 6.613281 -14.34375 C 7.007812 -15.980469 6.417969 -16.636719 5.5 -16.636719 C 3.601562 -16.636719 0.195312 -13.949219 0.195312 -10.609375 Z M 0.195312 -10.609375 "/></g></g></g><g fill="#000000" fill-opacity="1"><g transform="translate(225.374853, 189.252243)"><g><path d="M 2.03125 10.21875 L 2.03125 3.210938 C 4.648438 3.273438 7.859375 6.8125 7.859375 9.757812 L 7.859375 12.246094 C 7.859375 14.605469 6.15625 19.058594 4.78125 19.976562 C 2.488281 19.386719 2.03125 12.183594 2.03125 10.21875 Z M -8.449219 3.472656 C -8.449219 4.324219 -8.644531 5.042969 -7.074219 5.042969 C -4.519531 5.042969 -2.75 3.535156 -1.246094 3.210938 C -1.246094 4.386719 -1.507812 5.175781 -1.441406 5.960938 C -1.179688 8.644531 -0.65625 22.53125 4.324219 22.53125 C 6.679688 22.53125 7.925781 20.039062 8.578125 18.207031 C 11.332031 11.066406 10.28125 2.945312 2.683594 1.179688 L 11.527344 -5.699219 C 12.507812 -6.613281 16.175781 -9.496094 16.175781 -10.804688 C 16.175781 -11.394531 15.847656 -11.59375 15.457031 -11.59375 C 15.128906 -11.59375 14.800781 -11.460938 14.539062 -11.265625 L 9.757812 -6.746094 C 8.316406 -5.5 3.601562 -1.769531 2.488281 -1.441406 C 2.621094 -3.011719 3.011719 -5.632812 3.273438 -7.074219 C 4.324219 -12.117188 4.648438 -12.96875 5.960938 -17.617188 C 7.335938 -22.59375 8.054688 -19.253906 8.054688 -22.398438 C 8.054688 -23.511719 7.53125 -23.96875 6.941406 -23.96875 C 6.351562 -23.96875 5.699219 -23.578125 5.175781 -22.921875 C 2.621094 -19.320312 -0.65625 -5.699219 -0.980469 -0.523438 C -1.113281 0.980469 -1.179688 0.589844 -2.554688 0.785156 C -4.0625 0.980469 -8.449219 1.832031 -8.449219 3.472656 Z M -8.449219 3.472656 "/></g></g></g><g fill="#000000" fill-opacity="1"><g transform="translate(238.341473, 189.252243)"><g><path d="M 5.4375 0.261719 C 8.515625 0.261719 11.003906 -2.621094 12.574219 -4.257812 C 13.621094 -5.304688 17.550781 -9.691406 17.550781 -10.9375 C 17.550781 -11.527344 17.355469 -11.722656 17.09375 -11.722656 C 15.847656 -11.722656 12.378906 -7.074219 12.117188 -6.746094 C 11.132812 -5.5 7.726562 -2.03125 5.632812 -2.03125 C 3.863281 -2.03125 3.144531 -5.894531 3.144531 -7.859375 C 3.144531 -14.539062 5.761719 -17.488281 2.75 -17.488281 C 1.441406 -17.488281 0.785156 -14.539062 0.589844 -13.164062 C -0.132812 -9.824219 0 -5.304688 1.570312 -2.359375 C 2.292969 -1.113281 3.667969 0.261719 5.4375 0.261719 Z M 3.339844 -25.738281 C 3.339844 -24.296875 4.191406 -23.644531 5.109375 -23.644531 C 6.417969 -23.644531 7.792969 -25.082031 6.550781 -27.507812 C 6.15625 -28.226562 5.699219 -28.488281 5.238281 -28.488281 C 4.257812 -28.488281 3.339844 -27.246094 3.339844 -25.738281 Z M 3.339844 -25.738281 "/></g></g></g><g fill="#000000" fill-opacity="1"><g transform="translate(253.272739, 189.252243)"><g><path d="M 1.832031 -3.40625 C 4.386719 -3.40625 7.007812 -11.789062 9.167969 -13.230469 C 9.757812 -11.984375 8.839844 -9.367188 10.152344 -5.4375 C 10.742188 -3.667969 11.855469 -1.898438 13.882812 -1.898438 C 14.277344 -1.898438 14.671875 -1.964844 15.128906 -2.097656 C 16.636719 -2.488281 18.730469 -5.109375 19.648438 -6.289062 C 20.039062 -6.8125 23.90625 -11.65625 21.351562 -11.65625 C 20.171875 -11.65625 16.699219 -3.863281 14.082031 -3.863281 C 11.65625 -3.863281 11.527344 -9.691406 11.527344 -11.332031 L 11.132812 -14.996094 C 10.804688 -15.71875 10.347656 -16.046875 9.890625 -16.046875 C 8.316406 -16.046875 6.351562 -12.707031 5.960938 -11.984375 L 2.816406 -7.203125 C 2.816406 -12.3125 7.074219 -18.46875 4.191406 -18.46875 C 1.703125 -18.46875 -2.359375 -3.40625 1.832031 -3.40625 Z M 1.832031 -3.40625 "/></g></g></g><g fill="#000000" fill-opacity="1"><g transform="translate(272.919137, 189.252243)"><g><path d="M 0 -6.613281 C 0 -4.257812 0.195312 -3.144531 2.621094 -3.144531 C 4.519531 -3.144531 6.550781 -9.300781 7.792969 -10.152344 C 7.792969 -7.335938 9.890625 -3.929688 13.164062 -3.929688 C 14.277344 -3.929688 15.523438 -4.324219 16.832031 -5.238281 L 18.796875 -6.8125 C 22.136719 -10.019531 21.742188 -11.65625 20.761719 -11.65625 C 20.367188 -11.65625 19.910156 -11.460938 19.582031 -11.003906 C 18.664062 -10.019531 18.46875 -9.429688 17.222656 -8.316406 C 15.785156 -6.875 14.410156 -6.089844 13.164062 -6.089844 C 11.789062 -6.089844 10.609375 -7.140625 10.085938 -9.496094 C 9.496094 -11.984375 10.609375 -14.933594 8.316406 -14.933594 C 7.464844 -14.933594 4.78125 -9.367188 3.472656 -7.335938 L 2.945312 -6.550781 C 2.621094 -6.15625 2.816406 -6.417969 2.621094 -6.222656 C 2.621094 -8.382812 3.535156 -10.871094 4.386719 -12.246094 C 6.289062 -15.523438 7.597656 -16.4375 8.578125 -16.4375 C 9.824219 -16.4375 10.609375 -14.933594 11.527344 -14.933594 C 13.230469 -14.933594 11.527344 -18.664062 8.449219 -18.664062 C 3.863281 -18.664062 0 -10.347656 0 -6.613281 Z M 0 -6.613281 "/></g></g></g><g fill="#000000" fill-opacity="1"><g transform="translate(178.961597, 236.845282)"><g><path d="M 13.078125 -1.484375 C 11.609375 -0.367188 9.847656 0.1875 7.796875 0.1875 C 5.742188 0.1875 4.085938 -0.46875 2.828125 -1.78125 C 1.578125 -3.101562 0.953125 -4.75 0.953125 -6.71875 C 0.953125 -8.6875 1.554688 -10.328125 2.765625 -11.640625 C 3.972656 -12.953125 5.601562 -13.609375 7.65625 -13.609375 C 8.601562 -13.609375 9.550781 -13.476562 10.5 -13.21875 C 11.445312 -12.96875 12.160156 -12.707031 12.640625 -12.4375 L 12.640625 -9.984375 L 12.4375 -10.015625 C 12.113281 -11.171875 11.554688 -11.984375 10.765625 -12.453125 C 9.984375 -12.921875 8.945312 -13.15625 7.65625 -13.15625 C 6.019531 -13.15625 4.769531 -12.5625 3.90625 -11.375 C 3.050781 -10.195312 2.625 -8.65625 2.625 -6.75 C 2.625 -4.84375 3.078125 -3.300781 3.984375 -2.125 C 4.898438 -0.945312 6.175781 -0.359375 7.8125 -0.359375 C 8.988281 -0.359375 9.96875 -0.503906 10.75 -0.796875 C 11.539062 -1.085938 12.316406 -1.503906 13.078125 -2.046875 Z M 13.078125 -1.484375 "/></g></g></g><g fill="#000000" fill-opacity="1"><g transform="translate(192.612316, 236.845282)"><g><path d="M 8.5 -0.234375 C 8.988281 -0.234375 9.332031 -0.269531 9.53125 -0.34375 C 9.726562 -0.414062 9.828125 -0.613281 9.828125 -0.9375 C 9.828125 -1.257812 9.488281 -2.347656 8.8125 -4.203125 L 2.953125 -4.203125 C 2.398438 -2.578125 2.125 -1.554688 2.125 -1.140625 C 2.125 -0.722656 2.226562 -0.46875 2.4375 -0.375 C 2.65625 -0.28125 3.039062 -0.234375 3.59375 -0.234375 L 3.625 0 L -0.6875 0 L -0.65625 -0.234375 C -0.28125 -0.234375 0.0078125 -0.265625 0.21875 -0.328125 C 0.425781 -0.390625 0.65625 -0.554688 0.90625 -0.828125 C 1.15625 -1.109375 1.394531 -1.507812 1.625 -2.03125 C 1.851562 -2.5625 2.128906 -3.296875 2.453125 -4.234375 L 4.15625 -9.171875 C 4.757812 -10.910156 5.0625 -11.960938 5.0625 -12.328125 C 5.0625 -12.703125 4.972656 -12.941406 4.796875 -13.046875 C 4.617188 -13.160156 4.273438 -13.21875 3.765625 -13.21875 L 3.71875 -13.4375 L 6.890625 -13.4375 L 10.28125 -4.234375 C 10.851562 -2.710938 11.238281 -1.75 11.4375 -1.34375 C 11.644531 -0.9375 11.835938 -0.675781 12.015625 -0.5625 C 12.328125 -0.34375 12.726562 -0.234375 13.21875 -0.234375 L 13.265625 0 L 8.46875 0 Z M 5.8125 -12.390625 L 3.109375 -4.65625 L 8.65625 -4.65625 Z M 5.8125 -12.390625 "/></g></g></g><g fill="#000000" fill-opacity="1"><g transform="translate(205.170207, 236.845282)"><g><path d="M 12.984375 -9.109375 L 12.984375 0.09375 L 12.390625 0.09375 L 3.359375 -11.328125 L 3.359375 -4.375 C 3.359375 -3.09375 3.414062 -2.171875 3.53125 -1.609375 C 3.644531 -1.046875 3.835938 -0.675781 4.109375 -0.5 C 4.378906 -0.320312 4.820312 -0.234375 5.4375 -0.234375 L 5.46875 0 L 0.75 0 L 0.78125 -0.234375 C 1.394531 -0.234375 1.835938 -0.320312 2.109375 -0.5 C 2.378906 -0.675781 2.570312 -1.046875 2.6875 -1.609375 C 2.8125 -2.171875 2.875 -3.09375 2.875 -4.375 L 2.875 -9.109375 C 2.875 -10.390625 2.8125 -11.304688 2.6875 -11.859375 C 2.570312 -12.421875 2.382812 -12.785156 2.125 -12.953125 C 1.863281 -13.128906 1.414062 -13.21875 0.78125 -13.21875 L 0.75 -13.4375 L 3.359375 -13.4375 L 12.515625 -2.015625 L 12.515625 -9.109375 C 12.515625 -10.378906 12.453125 -11.296875 12.328125 -11.859375 C 12.203125 -12.421875 12.003906 -12.785156 11.734375 -12.953125 C 11.472656 -13.128906 11.03125 -13.21875 10.40625 -13.21875 L 10.359375 -13.4375 L 15.125 -13.4375 L 15.078125 -13.21875 C 14.453125 -13.21875 14.003906 -13.128906 13.734375 -12.953125 C 13.460938 -12.785156 13.269531 -12.421875 13.15625 -11.859375 C 13.039062 -11.296875 12.984375 -10.378906 12.984375 -9.109375 Z M 12.984375 -9.109375 "/></g></g></g><g fill="#000000" fill-opacity="1"><g transform="translate(221.025751, 236.845282)"><g><path d="M 4.828125 -13.4375 C 7.035156 -13.4375 8.6875 -13.242188 9.78125 -12.859375 C 10.28125 -12.679688 10.8125 -12.425781 11.375 -12.09375 C 11.9375 -11.757812 12.394531 -11.359375 12.75 -10.890625 C 13.101562 -10.429688 13.394531 -9.84375 13.625 -9.125 C 13.863281 -8.414062 13.984375 -7.613281 13.984375 -6.71875 C 13.984375 -5.832031 13.863281 -5.035156 13.625 -4.328125 C 13.394531 -3.617188 13.101562 -3.03125 12.75 -2.5625 C 12.394531 -2.101562 11.957031 -1.703125 11.4375 -1.359375 C 10.925781 -1.023438 10.4375 -0.773438 9.96875 -0.609375 C 9.507812 -0.441406 9 -0.3125 8.4375 -0.21875 C 7.6875 -0.0703125 6.914062 0 6.125 0 L 0.953125 0 L 1 -0.234375 C 1.632812 -0.234375 2.097656 -0.351562 2.390625 -0.59375 C 2.710938 -0.863281 2.875 -2.113281 2.875 -4.34375 L 2.875 -9.09375 C 2.875 -10.457031 2.832031 -11.390625 2.75 -11.890625 C 2.664062 -12.398438 2.546875 -12.722656 2.390625 -12.859375 C 2.097656 -13.097656 1.632812 -13.21875 1 -13.21875 L 0.953125 -13.4375 Z M 4.9375 -0.453125 C 5.082031 -0.441406 5.394531 -0.4375 5.875 -0.4375 C 6.351562 -0.4375 6.878906 -0.488281 7.453125 -0.59375 C 8.023438 -0.695312 8.613281 -0.890625 9.21875 -1.171875 C 9.820312 -1.460938 10.34375 -1.832031 10.78125 -2.28125 C 11.226562 -2.726562 11.59375 -3.332031 11.875 -4.09375 C 12.164062 -4.851562 12.3125 -5.722656 12.3125 -6.703125 C 12.3125 -7.679688 12.171875 -8.546875 11.890625 -9.296875 C 11.609375 -10.054688 11.242188 -10.660156 10.796875 -11.109375 C 10.347656 -11.566406 9.828125 -11.941406 9.234375 -12.234375 C 8.171875 -12.734375 7 -12.984375 5.71875 -12.984375 C 5.144531 -12.984375 4.644531 -12.945312 4.21875 -12.875 L 4.21875 -4.109375 C 4.21875 -2.722656 4.253906 -1.804688 4.328125 -1.359375 C 4.410156 -0.910156 4.613281 -0.609375 4.9375 -0.453125 Z M 4.9375 -0.453125 "/></g></g></g><g fill="#000000" fill-opacity="1"><g transform="translate(235.673436, 236.845282)"><g><path d="M 10.15625 0 L 0.984375 0 L 1.015625 -0.234375 C 1.328125 -0.234375 1.570312 -0.242188 1.75 -0.265625 C 1.9375 -0.296875 2.109375 -0.367188 2.265625 -0.484375 C 2.421875 -0.597656 2.53125 -0.726562 2.59375 -0.875 C 2.664062 -1.019531 2.726562 -1.265625 2.78125 -1.609375 C 2.84375 -2.054688 2.875 -2.96875 2.875 -4.34375 L 2.875 -9.09375 C 2.875 -11 2.785156 -12.15625 2.609375 -12.5625 C 2.441406 -12.925781 2.160156 -13.132812 1.765625 -13.1875 C 1.578125 -13.207031 1.328125 -13.21875 1.015625 -13.21875 L 0.984375 -13.4375 L 6.140625 -13.4375 L 6.109375 -13.21875 C 5.460938 -13.21875 4.992188 -13.097656 4.703125 -12.859375 C 4.378906 -12.585938 4.21875 -11.332031 4.21875 -9.09375 L 4.21875 -4.046875 C 4.21875 -2.660156 4.257812 -1.738281 4.34375 -1.28125 C 4.4375 -0.832031 4.648438 -0.535156 4.984375 -0.390625 C 8.285156 -0.390625 9.9375 -1.175781 9.9375 -2.75 L 10.15625 -2.78125 Z M 10.15625 0 "/></g></g></g><g fill="#000000" fill-opacity="1"><g transform="translate(246.29492, 236.845282)"><g><path d="M 10.625 0 L 0.953125 0 L 1 -0.234375 C 1.632812 -0.234375 2.097656 -0.351562 2.390625 -0.59375 C 2.710938 -0.863281 2.875 -2.113281 2.875 -4.34375 L 2.875 -9.09375 C 2.875 -10.457031 2.832031 -11.390625 2.75 -11.890625 C 2.664062 -12.398438 2.546875 -12.722656 2.390625 -12.859375 C 2.097656 -13.097656 1.632812 -13.21875 1 -13.21875 L 0.953125 -13.4375 L 9.921875 -13.4375 L 9.921875 -10.671875 L 9.6875 -10.703125 C 9.6875 -11.554688 9.234375 -12.148438 8.328125 -12.484375 C 7.429688 -12.816406 6.054688 -12.984375 4.203125 -12.984375 L 4.203125 -6.953125 C 5.429688 -6.953125 6.3125 -7.015625 6.84375 -7.140625 C 7.382812 -7.265625 7.726562 -7.457031 7.875 -7.71875 C 8.03125 -7.976562 8.109375 -8.414062 8.109375 -9.03125 L 8.328125 -9.078125 L 8.328125 -4.40625 L 8.109375 -4.453125 C 8.109375 -5.078125 8.03125 -5.515625 7.875 -5.765625 C 7.726562 -6.023438 7.382812 -6.21875 6.84375 -6.34375 C 6.3125 -6.46875 5.429688 -6.53125 4.203125 -6.53125 L 4.203125 -4.046875 C 4.203125 -2.691406 4.25 -1.789062 4.34375 -1.34375 C 4.4375 -0.894531 4.648438 -0.59375 4.984375 -0.4375 C 8.597656 -0.4375 10.40625 -1.207031 10.40625 -2.75 L 10.625 -2.78125 Z M 10.625 0 "/></g></g></g><g fill="#000000" fill-opacity="1"><g transform="translate(258.105092, 236.845282)"><g><path d="M 1.578125 -4.0625 C 1.578125 -2.820312 1.878906 -1.875 2.484375 -1.21875 C 3.085938 -0.570312 3.832031 -0.25 4.71875 -0.25 C 5.601562 -0.25 6.328125 -0.460938 6.890625 -0.890625 C 7.453125 -1.316406 7.734375 -1.992188 7.734375 -2.921875 C 7.734375 -3.742188 7.289062 -4.484375 6.40625 -5.140625 C 6.019531 -5.421875 5.585938 -5.695312 5.109375 -5.96875 C 4.640625 -6.25 4.171875 -6.535156 3.703125 -6.828125 C 3.234375 -7.117188 2.804688 -7.425781 2.421875 -7.75 C 1.535156 -8.488281 1.09375 -9.351562 1.09375 -10.34375 C 1.09375 -11.34375 1.453125 -12.132812 2.171875 -12.71875 C 2.898438 -13.3125 3.859375 -13.609375 5.046875 -13.609375 C 6.242188 -13.609375 7.359375 -13.34375 8.390625 -12.8125 C 8.390625 -12.175781 8.289062 -11.078125 8.09375 -9.515625 L 7.8125 -9.59375 C 7.8125 -10.789062 7.515625 -11.6875 6.921875 -12.28125 C 6.335938 -12.882812 5.664062 -13.1875 4.90625 -13.1875 C 4.144531 -13.1875 3.53125 -12.960938 3.0625 -12.515625 C 2.601562 -12.078125 2.375 -11.554688 2.375 -10.953125 C 2.375 -10.347656 2.535156 -9.832031 2.859375 -9.40625 C 3.191406 -8.976562 3.601562 -8.625 4.09375 -8.34375 C 4.582031 -8.0625 5.113281 -7.75 5.6875 -7.40625 C 6.269531 -7.070312 6.804688 -6.738281 7.296875 -6.40625 C 7.796875 -6.082031 8.207031 -5.660156 8.53125 -5.140625 C 8.851562 -4.617188 9.015625 -4.03125 9.015625 -3.375 C 9.015625 -2.195312 8.59375 -1.304688 7.75 -0.703125 C 6.914062 -0.109375 5.910156 0.1875 4.734375 0.1875 C 4.085938 0.1875 3.421875 0.0859375 2.734375 -0.109375 C 2.046875 -0.316406 1.488281 -0.617188 1.0625 -1.015625 C 1.0625 -1.835938 1.132812 -2.875 1.28125 -4.125 Z M 1.578125 -4.0625 "/></g></g></g></svg>